<?xml version="1.0" encoding="UTF-8"?><svg id="b" xmlns="http://www.w3.org/2000/svg" viewBox="0 0 332.54 392"><defs><style>.d{fill:#85c441;}.e{fill:#020202;}.f{fill:#fefefe;}</style></defs><g id="c"><path class="e" d="M217.28,192.6c5.15-14.11,10.05-29.16,17.03-42.47,3.07-5.85,10.35-22.43,18.17-14.83,7.49,7.28,15.64,35.73,18.51,46.49,1.57,5.89,2.73,18.45,5.07,22.93,1.27,2.43,6.89,5.83,9.39,8.61,8.52,9.47,13.45,23.79,13.04,36.46,4.43-1.04,29.89-7.08,31.99-4.99,1.65,1.65-1.39,3.8-3.15,4.34-5.1,1.56-24.94,3.04-27.88,5.12-1.32.94-2.13,8.44-2.96,10.53,9.58.16,19.93-.38,29.41,1.1,1.9.3,8.09,2.42,5.59,4.9-1.29,1.28-31.66-2.64-36.34-.84-8.48,14.4-20.81,24.99-35.7,32.41,4.56,13.65,14.6,24.43,25.03,33.94,14.55,13.28,20.58,13.95,36.69,22.31,14.18,7.36,16.74,25.55-1.68,26.18.04-1.99.18-8.87-1.01-10-.55-.53-2.14-.71-1.77,1.26.43,2.29,2.26,7.58-.86,8.6-12.35,4.05-32.13-12.88-42.69-19.03-15.41-8.98-31.38-17.08-46.59-26.41-8.1-4.97-17.71-13.4-25.56-17.44-18.94-9.77-.4,18.09,3.96,23.04,10.73,12.18,22.11,14,33.43,22.57,5.83,4.41,15.1,17.03,5.81,22.63-9.61,5.79-6.14-6.92-13.21-9.22l3.47,7.54c-.02,4.31-7.49,3.79-10.48,3.47-8.06-.86-14.51-8.56-21.18-12.81-18.4-11.72-39.6-18.94-57.64-32.36-10.6-7.88-18.95-17.94-28.66-26.34-13.24-11.46-48.07-34.8-52.58-51.48-1.24-4.6,3.97-10.78,3.56-16-2.45-2.71-6.62,11.37-7.12,12.37-6.55,13.08-14.78,13.1-24.37,20.63-7.24,5.68-7.31,12.83-6.54,21.53,1.2,13.59,10.48,14.65,13.8,25.19,3.52,11.15-3.62,18.13-14.75,17.26l-2-8.98c2.27,14.43-9.75,9.9-15.45,1.93-9.54-13.33-14.48-57.66-8.31-72.18,2.1-4.93,7.02-7.38,9.58-11.42,7.11-11.22,5.52-36.87,7.29-50.71,4.35-33.98,19.25-63.29,49.83-80.17,4.52-2.5,10.76-2.15,10.87-8.93.42-27.53-3.4-50.65,7.7-77.5C101.58,8.93,136.13-9.81,170.46,5.31c9.33,4.11,25.99,17.14,17.49,28.46-6.33,8.43-22.84-3.24-31.99-3.96-45.1-3.54-51.75,46.3-46.21,80.2.56,3.43,2.07,10.57,3.5,13.5,1.87,3.82,12.25,7.51,16.55,10.45,12.74,8.71,22.43,23.96,29.65,37.34-9.25-2.95-28.84-18.11-35.05-3.09-4.82,11.65-.93,42.62,1.37,55.78.66,3.78,5.69,28.7,8.21,28.77,1.08.03,1.51-2.31,1.53-3.44.17-8.35-5.58-25.47-6.9-35.18-1.53-11.32-3.01-26.5-.88-37.61s3.81-11.69,13.62-7.12c15.8,7.35,31.69,20.31,46.84,29.2,9.54-2.88,19.18-4.86,29.09-6.03ZM260.22,224.04c-10.63,1.83-18.47,15.85-17.66,26.13,1.19,15,18.34,27.34,32.26,18.47,20.65-13.16,11.9-49.16-14.6-44.6ZM195.23,242.06c-35.57,4.89-18.69,62.46,14.92,45.91,23.86-11.74,13.01-49.75-14.92-45.91ZM246.26,286.57c.91-.52,4.24-6.82,4.15-8.33-.49-8.62-17.03-2.69-15.97,4.99.59,4.32,9.51,4.66,11.82,3.34ZM176.47,296.8c-4.79-1.81-38.26,5.22-39.86,7.12-2.61,3.11.81,4.22,4.12,3.63,9.46-1.7,23.35-6.16,33.31-8.74,1.65-.43,2.93,1.02,2.43-2.02ZM178.48,311.8c-8.58,1.98-21.16,7.68-27.71,13.78-1.06.99-2.79,1.03-2.28,3.21,2.81.46,4.61-.38,7.04-1.45,4.07-1.79,16.29-9.83,20.28-12.72,1.01-.73,2.41-1.48,2.68-2.81Z"/><path class="e" d="M118.33,326.93c2.57,4.44-9.61,7.55-12.63,7.63-14.48.38-23.16-19.3-21.22-31.75l33.85,24.13Z"/><path class="d" d="M195.23,242.06c27.94-3.84,38.78,34.17,14.92,45.91-33.61,16.54-50.49-41.03-14.92-45.91ZM209.48,258.79c-.08-.11-1.88-1.93-2-2-14.2-8.14-18.93,14.57-11.01,23.51,10.63,11.99,20.64-10.87,13.01-21.51Z"/><path class="d" d="M260.22,224.04c26.5-4.56,35.25,31.44,14.6,44.6-13.92,8.87-31.08-3.47-32.26-18.47-.81-10.28,7.03-24.3,17.66-26.13ZM263.19,237.01c-12.55,3.64-8.81,30.96,3.67,29.5,9.56-1.12,14.92-34.89-3.67-29.5Z"/><path class="d" d="M246.26,286.57c-2.3,1.32-11.22.98-11.82-3.34-1.06-7.68,15.48-13.61,15.97-4.99.09,1.51-3.25,7.8-4.15,8.33Z"/><path class="f" d="M176.47,296.8c.5,3.04-.78,1.59-2.43,2.02-9.95,2.58-23.85,7.03-33.31,8.74-3.31.59-6.73-.52-4.12-3.63,1.6-1.9,35.07-8.93,39.86-7.12Z"/><path class="f" d="M178.48,311.8c-.27,1.33-1.67,2.08-2.68,2.81-3.98,2.89-16.21,10.94-20.28,12.72-2.43,1.07-4.23,1.91-7.04,1.45-.51-2.17,1.22-2.22,2.28-3.21,6.55-6.1,19.13-11.8,27.71-13.78Z"/><path class="e" d="M207.48,256.79c-7.68-1.55-7.67,9.13-1.61,8.98,4.83-.12,3.64-3.18,3.61-6.98,7.63,10.64-2.38,33.5-13.01,21.51-7.92-8.94-3.19-31.65,11.01-23.51Z"/><path class="f" d="M207.48,256.79c.12.07,1.92,1.89,2,2,.03,3.8,1.22,6.86-3.61,6.98-6.06.15-6.08-10.53,1.61-8.98Z"/><path class="e" d="M263.19,237.01c18.59-5.39,13.23,28.39,3.67,29.5-12.47,1.46-16.22-25.87-3.67-29.5ZM267.18,238.93c-7.47,1.83,1.68,16.18,5.57,6.56,1.43-3.53-2.29-7.36-5.57-6.56Z"/><path class="f" d="M267.18,238.93c3.28-.8,7,3.03,5.57,6.56-3.89,9.62-13.04-4.73-5.57-6.56Z"/></g></svg>