<?xml version="1.0" encoding="UTF-8"?><svg id="b" xmlns="http://www.w3.org/2000/svg" viewBox="0 0 264.25 251.69"><defs><style>.d{fill:#85c441;}.e{fill:#010201;}.f{fill:#fefefe;}</style></defs><g id="c"><path class="e" d="M127.88,61.58c8.9-17.42,19.29-35.33,32.61-49.8,10.53-11.44,18.96-19.21,25.43.57,5.64,17.22,7.72,45.63,7.85,63.88.03,4.76-2.34,15.25-1.04,19.16,2.82,8.48,12.3,7.66,19.23,9.8,70.89,21.88,70.95,138.94-7.52,145.35-32.17,2.63-70.94-.15-103.92-.03-18.43.07-37.48,1.54-55.95,1.08-35.93-.89-57.3-36.59-26.37-59.42,3.34-2.46,8.04-3.66,10.92-6.55C4.26,171.2-5.88,137.34,3.38,110.42c1.47-4.26,9.34-15.75,9.59-17.41.44-2.98-1.71-10.09-1.86-13.74-.8-19.72.38-45.85,6.32-64.7,6.19-19.67,12.89-17.72,25.72-4.3,13.54,14.16,24.37,32.99,33.93,49.99,10.5.47,20.98-1.1,31.52-.55,3.74.2,17.14,3.2,19.28,1.87ZM70.77,153.31c31.55-21.68-4.77-69.97-34.55-47.02-28.06,21.62,5.76,66.81,34.55,47.02ZM151.35,156.05c8.3-1.94,12.22-2.51,18.06-9.47,12.28-14.63,7.47-36.23-10.17-43.61-24.31-10.17-48.23,16.92-36.02,40.02,4.99,9.45,16.78,15.23,27.19,14.63.63-.04.64-1.5.94-1.57ZM203.96,119.69v17.48c0,3.14-2.99,13.28-4.23,16.75-4.23,11.78-12.79,23.14-23.75,29.21.17,3.33,14.31-5.61,15.47-6.52,14.05-10.97,20.77-31.77,17.06-48.98-.2-.92-2.76-10.19-4.55-7.94ZM115.05,211.61c-11.97-1.2-27.17,5.94-27.05,19.47.02,2.04-.3,4.85,2.07,5.5.35-8.28,5.35-15.14,12.31-19.17l12.67-5.79Z"/><path class="d" d="M70.77,153.31c-28.79,19.79-62.61-25.4-34.55-47.02,29.78-22.95,66.1,25.34,34.55,47.02ZM66.82,113.97c-.77-.79-4.09-2.04-5.28-2.21-24.77-3.34-19.48,42.58,1.31,34.14,9.79-3.97,10.61-25.16,3.98-31.94Z"/><path class="d" d="M151.35,156.05c-.3.07-.31,1.54-.94,1.57-10.41.6-22.2-5.18-27.19-14.63-12.2-23.1,11.71-50.19,36.02-40.02,17.64,7.38,22.45,28.98,10.17,43.61-5.84,6.96-9.76,7.53-18.06,9.47ZM134.33,114.99c-8.35,7.49-1.29,39.08,14.39,30.88,13.55-7.09,9.67-38.11-7.99-33.95-.49.12-6.14,2.84-6.4,3.08Z"/><path class="f" d="M203.96,119.69c1.79-2.25,4.35,7.02,4.55,7.94,3.71,17.21-3.01,38.01-17.06,48.98-1.16.9-15.3,9.85-15.47,6.52,10.96-6.07,19.52-17.43,23.75-29.21,1.24-3.47,4.23-13.61,4.23-16.75v-17.48Z"/><path class="f" d="M115.05,211.61l-12.67,5.79c-6.95,4.04-11.96,10.89-12.31,19.17-2.37-.65-2.05-3.46-2.07-5.5-.12-13.53,15.07-20.67,27.05-19.47Z"/><path class="e" d="M66.82,113.97c6.63,6.78,5.82,27.96-3.98,31.94-20.79,8.44-26.08-37.48-1.31-34.14,1.19.16,4.52,1.42,5.28,2.21ZM53.81,114.87c-5.27,1.61-5.29,13.3,3.6,10.62,4.78-1.44,3.57-12.81-3.6-10.62Z"/><path class="e" d="M134.33,114.99c.26-.24,5.91-2.96,6.4-3.08,17.66-4.16,21.54,26.86,7.99,33.95-15.68,8.21-22.74-23.39-14.39-30.88ZM137.27,124.44c5.53,5.56,12.23-5.96,6.77-9.26-5.33-3.21-10.85,5.16-6.77,9.26Z"/><path class="f" d="M53.81,114.87c7.16-2.19,8.37,9.18,3.6,10.62-8.89,2.68-8.86-9.01-3.6-10.62Z"/><path class="f" d="M137.27,124.44c-4.08-4.1,1.44-12.47,6.77-9.26,5.47,3.3-1.23,14.82-6.77,9.26Z"/></g></svg>