<?xml version="1.0" encoding="UTF-8"?><svg id="b" xmlns="http://www.w3.org/2000/svg" viewBox="0 0 248.44 345.15"><defs><style>.d{fill:#85c441;}.e{fill:#020202;}.f{fill:#fefefe;}</style></defs><g id="c"><path class="e" d="M114.43,46.75c14.81-.87,29.38-3.24,44.1.29,11.29-13.4,23.31-32.45,37.21-43.04,14.26-10.87,16.04,5.43,18.16,16.79,3.18,17.07,3.6,34.39,3.36,51.73-.05,3.69-1.61,6.64-.98,10.9.8,5.41,5.23,11.21,5.93,18.07s-.18,14.64-1.99,21.48c8.04,1.17,16.75-1.92,24.55-1.04,4.69.53,4.73,4.37.94,5.04-5.16.65-25.52-.25-27.94,3.06-1.23,1.68-1.16,5.01-3.55,6.45,7.2,3.07,15.29,4.13,22.35,7.64,1.41.7,8.04,3.52,5.64,5.85-1.89,1.83-24.53-8.71-29.45-8.03-2.59.36-4.67,4.97-7.02,7.06-1.59,1.42-8.14,5.61-8.44,6.63-.58,1.93,5.54,12.14,6.68,15.08,16.26,41.98,4.68,91.98-8.76,133.23,21.48,2.11,26.33,34.26,2,35.03-.17-2.76.32-5.68-.08-8.42-.27-1.84-1.88-8.28-3.92-6.57-.61.51,4.78,13.02-.64,14.85-4.24,1.43-16.85-.46-21.07-2.66-6.65-3.47-6.35-9.69-10.44-14.56-1.94-2.3-7.77-5.26-8.42-7.56-2.99-18.32.06-42.44-5.14-59.93-.52-1.73.35-2.61-2.28-2.16l4.01,64.48c.79,4.21,10.82,5.65,11.92,15.12,1.57,13.52-15.91,14.26-25.31,13.27-1.93-.2-14.02-3.24-14.53-3.97-2.09-3,3.91-6.91,5.34-8.97,5.99-8.63,6.7-23.64-2.42-30.45-8.08-6.04-17.97-2.09-27.01-1.49,3.33-16.61,3.37-34.27-3.54-49.96-4.49-10.2-13.77-23.71-26.46-22.03-.51,2.84.68,1.64,2.19,2.25,25.92,10.42,27.89,45.96,24.86,70.14-.57,2.25-35.82,3.93-40.56,3.61-2.22,1.51,2.54,3.71,4.05,3.95,5.77.94,21.37-.39,27.82-1.08,11.16-1.19,35.03-10.28,40.42,3.84,4.44,11.63-3.36,21.33-13.43,26.14-23.15,11.07-68.66,9.58-92.56.85-12.59-4.6-21.87-11.07-19.7-26.12,1.12-7.76,10.58-12.84,10.91-16.1s-2.64-11.79-2.98-16c-4.01-49.54,30.76-91.79,63.91-124.12.14-.83-8.91-12.13-10.45-12.41-5.69-1.03-23.86,8.03-27.88,6.99-.77-.2-1.81-1.47-1.59-2.44.68-2.99,21.96-7.69,25.74-9.29,1.36-.58,1.32.35,1.09-1.53-.15-1.25-2.54-7.2-3.6-7.68-4.19-1.9-26.72-.91-28.23-3.03-1.33-1.86,3.06-3.71,4.57-3.94,3.67-.55,20.89,2.37,22.43.94-.25-4.66-2.09-10.99-2.03-15.44.11-7.86,4.29-16.51,5.03-24.06,2.36-24.12-2.18-49.87,4.73-74.27,1.36-4.82,2.43-10.22,8.53-9.03,11.75,2.31,36.09,36.5,43.95,46.58ZM119.91,120.67c18.27-22.37-20.45-56.21-39.52-28.03-15.72,23.23,15.71,47.81,33.1,34.36.36-.28,6.14-5.98,6.43-6.33ZM185.99,83.31c-7.62-3.27-19.84,1.6-25.18,7.75-19,21.91,8.26,50.71,30.35,35.35,10.44-7.26,14.18-19.67,8.47-31.34-3.08-6.28-6.55-7.13-12.16-9.8-1.07-.51-1.31-1.89-1.47-1.96ZM136.94,124.19c-7.37,1.63-5.85,11,.99,12.57,14.35,3.31,12.84-15.63-.99-12.57Z"/><path class="d" d="M119.91,120.67c-.29.35-6.07,6.05-6.43,6.33-17.38,13.45-48.82-11.13-33.1-34.36,19.07-28.18,57.8,5.66,39.52,28.03ZM113.22,99.97c-.71-6.88-2.33-6.28-8-7-2.79-.36-2.65-2.07-6.52.99-11.16,8.83-.05,39.27,10.96,24.95,4-5.2,4.21-12.62,3.56-18.94Z"/><path class="d" d="M185.99,83.31c.16.07.4,1.45,1.47,1.96,5.61,2.67,9.08,3.52,12.16,9.8,5.72,11.67,1.97,24.08-8.47,31.34-22.09,15.36-49.34-13.44-30.35-35.35,5.33-6.15,17.56-11.02,25.18-7.75ZM182.22,92.97c-7.74-7.55-14.41,3.96-15.04,11.46-.73,8.69.84,12.48,6.74,18.56,6.8,1.62,11.67-5.25,12.3-11.51.42-4.15.39-9.76-1.01-13.5-.48-1.28-2.08-4.11-3-5Z"/><path class="d" d="M136.94,124.19c13.83-3.06,15.34,15.88.99,12.57-6.84-1.58-8.35-10.94-.99-12.57Z"/><path class="e" d="M105.22,92.97c-3.61,7.75,1.49,12.74,8,7,.66,6.32.44,13.75-3.56,18.94-11.01,14.31-22.11-16.12-10.96-24.95,3.86-3.06,3.73-1.35,6.52-.99Z"/><path class="f" d="M113.22,99.97c-6.51,5.74-11.61.75-8-7,5.67.72,7.29.12,8,7Z"/><path class="e" d="M182.22,92.97c-11.43,1.62-1.49,16.76,3,5,1.39,3.74,1.43,9.35,1.01,13.5-.64,6.26-5.5,13.13-12.3,11.51-5.9-6.08-7.47-9.87-6.74-18.56.63-7.5,7.29-19.01,15.04-11.46Z"/><path class="f" d="M182.22,92.97c.92.89,2.52,3.72,3,5-4.49,11.76-14.43-3.38-3-5Z"/></g></svg>