<?xml version="1.0" encoding="UTF-8"?><svg id="b" xmlns="http://www.w3.org/2000/svg" viewBox="0 0 307.77 221.31"><defs><style>.d{fill:#85c441;}.e{fill:#010201;}.f{fill:#fefefe;}</style></defs><g id="c"><path class="e" d="M95,193.67c-10.2-.64-10.14,12.42-16.41,15.05-7.07,2.96-27.34,4.61-33.89.78-12.03-7.04-4.82-20.99,3.35-27.8-4.28-.49-7.96-8.18-11.03-9.54-3.09-1.38-22.61,7.78-29.41,6.55-2.29-.41-3.74-2.76-1.92-4.09l26.38-7.93c-1.75-1.82-2.99-6.4-5.02-7.46-5.56-2.9-19.08-1.61-25.23-4.74-1.71-.87-2-1.28-1.71-3.27,1.21-3.87,20.28.98,23.96.48-4.02-13.41-3.7-25.89,1.52-38.94,1.71-4.28,9.03-14.29,9.45-16.52,1.48-7.74-1.5-26.09-1.03-35.99.39-8.03,3.56-39.16,9.08-43.87,6.56-5.6,19.65,9.17,23.97,13.92,11.09,12.18,19.35,26.68,28.94,39.99,7.43,1.03,15.02.92,22.48,1.5,4.74.37,16.45,3.68,20.06,1.06,11.09-14.05,26.46-34.34,43.02-41.9,9.56-4.37,10.32-1.06,12.87,7.86,5.9,20.62,3.42,45,.5,65.94,1.39,0,2.04-2.9,2.45-4.03,6.91-19.18,7.97-48.2,1.8-67.65-1.94-6.1-3.82-11.76-11.63-11.19-6.76.49-23.21,13.5-28.6,18.43-4.15,3.79-23.84,27.21-26.23,27.25-3.49.07-11.83-2.3-16.22-2.76-3.75-.39-18.27-.27-20.23-2.24-4.83-4.85,4.9-14.95,8.24-18.76C173.45-34.94,293.31-2.78,306.65,102.39c6.42,50.59-14.83,95.28-64.54,112.01-21.56,7.25-53.91,10.12-75.45,2-2.81-1.06-9.71-5.6-11.28-5.75-3.28-.33-24.99,6.68-31.21,7.7-8.65,1.41-29.59,4.55-35.63-2.75-6.74-8.14-.4-16.78,6.45-21.93ZM246.85,79.76c-.95-2.83-8.87-1.25-11.25-.75-26.54,5.6-37.74,40.75-24.21,62.7,1.02-3.88-1.21-7.7-1.49-11.5-1.85-25.04,11.46-46.23,36.95-50.45ZM78.01,147.71c-11.38,5.92-20.86,1.55-29.96-6,1.32,10.41,11.74,16.17,21.69,13.21,1.43-.42,10.2-5.38,8.27-7.21ZM119.98,149.71c3.25,16.21,29.21,14.09,33.97-.49-3.26,1.05-6.07,3.6-9.45,4.54-8.11,2.26-17.74,1.28-24.52-4.05ZM204.89,148.71c-1.55-1.87-2.15,1.41-2.48,1.97-6.09,10.36-9.38,16.96-18.97,25.03-5.37,4.52-11,6.92-16.51,10.95,19.9-3.37,39.49,2.69,59.33-.11,13.85-1.96,29.9-8.36,39.58-18.65,2.9-3.09,7.69-9.37,7.49-13.2-17.06,20.77-44.65,28.13-70.92,25.95-2.25-.19-13.18-1.44-12.49-4.46.19-.84,8.53-10.74,10.15-13.84,1.02-1.95,5.66-12.63,4.82-13.65Z"/><path class="f" d="M204.89,148.71c.84,1.01-3.81,11.7-4.82,13.65-1.62,3.1-9.96,13-10.15,13.84-.69,3.02,10.25,4.27,12.49,4.46,26.27,2.18,53.86-5.18,70.92-25.95.2,3.83-4.59,10.11-7.49,13.2-9.68,10.29-25.73,16.69-39.58,18.65-19.83,2.8-39.42-3.27-59.33.11,5.51-4.03,11.14-6.43,16.51-10.95,9.59-8.07,12.88-14.67,18.97-25.03.33-.56.93-3.84,2.48-1.97Z"/><path class="f" d="M246.85,79.76c-25.49,4.22-38.8,25.41-36.95,50.45.28,3.8,2.51,7.63,1.49,11.5-13.53-21.94-2.33-57.1,24.21-62.7,2.38-.5,10.3-2.08,11.25.75Z"/><path class="d" d="M119.98,149.71c6.78,5.33,16.4,6.31,24.52,4.05,3.37-.94,6.19-3.49,9.45-4.54-4.75,14.58-30.71,16.7-33.97.49Z"/><path class="d" d="M78.01,147.71c1.93,1.83-6.84,6.78-8.27,7.21-9.95,2.96-20.36-2.79-21.69-13.21,9.09,7.55,18.57,11.92,29.96,6Z"/></g></svg>