<?xml version="1.0" encoding="UTF-8"?><svg id="b" xmlns="http://www.w3.org/2000/svg" viewBox="0 0 411.05 388.91"><defs><style>.d{fill:#85c441;}.e{fill:#020202;}.f{fill:#fefefe;}</style></defs><g id="c"><path class="e" d="M225.62,132.49c8.54-26.88,18.83-52.16,35.33-75.16,5.97-8.33,14.95-19.92,23.31-25.68,9.99-6.88,12.28,1.2,14.05,9.95,3.67,18.13,3.47,37.92,7.03,56.17l25.72,5.74c15.22-11.35,32.97-27.89,50.02-36.04,5.02-2.4,13.35-6.17,14.61,1.75,1.7,10.71-7.75,41.92-11.22,53.64-1.67,5.66-8.15,20.37-8.52,24.55-.22,2.43,5.45,14.6,5.85,20.71.69,10.55-2.71,16.95-5.04,26.53,6.88.69,24.53.06,29.93,3.58,3.11,2.03,2.64,4.49-1.11,4.2l-32.1-3.81c-.39.1-4.55,6.17-4.7,6.55-.71,1.85.72,1.28,1.38,1.57,4.71,2.07,23.31,10.25,25.09,13.93.44.9.89,3.55.51,3.98-1.12,1.26-26.33-14.58-30.34-14.79-6.63,4.18-11.75,9.56-18.96,12.98-3.23,1.53-6.99,2.24-10.27,3.72-1.02.46-1.69-.68-1.43,1.56.77,6.48,21.23,25.34,26.99,30.04,11.32,9.25,40.49,24.08,46.22,34.78,4.31,8.05,5.56,20.08-6.2,20.7-.7-.72,1.36-8.46-1.51-9.99-.51,23.69-23.15-1.02-31.16-6.84-21.32-15.48-47.38-26.88-68.25-43.75-7.29-5.9-8.48-9.39-13.86-16.14-4.1-5.13-3.6-.93-2.27,3.27,5.13,16.19,23.43,38.58,36.03,49.96,10.12,9.14,33.43,20.77,29.8,36.78-.78,3.43-7.03,8.36-9.84,6.29-2.12-1.56.39-5.96-1.94-6.57-.3,8.04-5.03,8.31-12.04,6.52-7.11-1.81-20.61-16.64-26.96-22.04-14.6-12.43-28.56-25.55-43-38-21.4-18.45-28.02-16.48-52.97-25.03-26.2-8.98-52.05-22.6-71.54-42.46-6.62-6.75-14.79-20.64-21.57-25.43-5.34-3.78-13.17-4.95-19.29-7.71-22.33-10.07-26.73-25.55-39.41-43.59S13.93,98.65,3.89,78.02c-9.6-19.72-.79-36.13,19.35-20.35,14.69,11.51,16.34,19.97,37.52,25.48,12.37,3.22,15.99,5.29,17.05-8.97.8-10.85-1.81-21.64-6.87-31.2-5.26-9.94-24.07-27.11-16.17-38.83,5.11-7.58,14.11-3.19,20.13.88,10.46,7.07,19.42,20.7,25.25,31.75,1.93,3.66,9.71,22.94,11.03,23.97s13.29,3.32,16.55,4.45c25.03,8.67,34.36,26.06,51.01,43.99,13.75,14.8,25.74,22.55,46.88,23.32ZM301.41,176.28c12.11-12.32,4.03-34.78-11.67-40.11-25.12-8.54-43.1,24.66-23.98,40.98,11.58,9.89,24.67,10.32,35.65-.87ZM343.37,151.22c-13.08,7.13-17.82,17.74-11.8,32.11,8.64,20.6,35.35,12.42,39.06-6.31,3.07-15.49-4.74-30.31-22.27-28.26-3.81.45-3.46,1.62-4.99,2.46ZM248.76,183.64c2.75-2.51-10.39-6.66-11.48-7.01-3.34-1.08-20.65-5.53-22.51-3.98l2.41,3.08,31.58,7.91ZM314.53,183.84c-10.53,1.52-5.58,16.94,5.29,13.36,7.02-2.32,4.46-14.77-5.29-13.36ZM247.77,194.65c-.36-.33-8.25-1.89-9.51-2-7.36-.67-21.21-.39-28.17,1.81-1.3.41-3.74.68-3.32,2.66.62,2.92,13.67-.41,16.45-.53,7.25-.31,16.17.92,23.06.04,1.38-.18,2.98-.6,1.48-1.99Z"/><path class="d" d="M386.52,360.86c16-2.26,21.13,19.2,7.94,25.98-20.54,10.57-31.19-22.7-7.94-25.98Z"/><path class="d" d="M301.41,176.28c-10.99,11.18-24.07,10.76-35.65.87-19.11-16.32-1.14-49.52,23.98-40.98,15.71,5.34,23.78,27.79,11.67,40.11ZM293.76,155.64c-.13-.99-.97-6.62-1.23-6.86-.46-.43-1.46.03-1.77-.14-14.01-7.89-19.12,13.72-14.21,23.71,4.85,9.87,14.61,2.26,16.77-5.65,1.09-3.99.92-7.41.44-11.06Z"/><path class="d" d="M343.37,151.22c1.53-.84,1.19-2.02,4.99-2.46,17.53-2.05,25.34,12.77,22.27,28.26-3.71,18.73-30.42,26.91-39.06,6.31-6.03-14.36-1.29-24.98,11.8-32.11ZM353.76,159.64c-6.16-5.77-11.94.09-14.21,6.29-2.26,6.18-2.47,24.94,7.24,22.29.55-.15,7.42-5.45,7.68-5.86,1.84-2.81,2.58-16.43,1.28-19.72-.22-.57-1.57-2.6-2-3Z"/><path class="d" d="M314.53,183.84c9.75-1.41,12.31,11.04,5.29,13.36-10.86,3.59-15.82-11.83-5.29-13.36Z"/><path class="f" d="M247.77,194.65c1.49,1.39-.1,1.82-1.48,1.99-6.89.88-15.81-.35-23.06-.04-2.78.12-15.83,3.45-16.45.53-.42-1.99,2.02-2.25,3.32-2.66,6.96-2.2,20.81-2.49,28.17-1.81,1.26.12,9.16,1.67,9.51,2Z"/><path class="f" d="M248.76,183.64l-31.58-7.91-2.41-3.08c1.87-1.55,19.17,2.89,22.51,3.98,1.09.35,14.22,4.5,11.48,7.01Z"/><path class="e" d="M290.76,148.64c-10.95.12-1.21,18.56,3,7,.48,3.64.64,7.07-.44,11.06-2.16,7.92-11.92,15.53-16.77,5.65-4.91-9.99.2-31.6,14.21-23.71Z"/><path class="f" d="M290.76,148.64c.31.17,1.31-.29,1.77.14.26.24,1.1,5.87,1.23,6.86-4.21,11.56-13.95-6.88-3-7Z"/><path class="e" d="M353.76,159.64c-16.74-2.63,1.04,21.28,2,3,1.3,3.3.57,16.91-1.28,19.72-.26.4-7.14,5.71-7.68,5.86-9.72,2.65-9.51-16.1-7.24-22.29,2.27-6.2,8.05-12.07,14.21-6.29Z"/><path class="f" d="M353.76,159.64c.43.4,1.78,2.43,2,3-.96,18.28-18.74-5.63-2-3Z"/></g></svg>