<?xml version="1.0" encoding="UTF-8"?><svg id="b" xmlns="http://www.w3.org/2000/svg" viewBox="0 0 344.67 367.16"><defs><style>.d{fill:#85c441;}.e{fill:#020202;}.f{fill:#fefefe;}</style></defs><g id="c"><path class="e" d="M267.79,130.75c5.84.33,28.21-2.96,32.03-.52,2.62,1.67-.75,4.17-2.56,4.5-6.97,1.28-26.49-2.27-30.95,3.05-.53.64-3.28,5.77-3.49,6.52-.6,2.09.57,1.17,1.44,1.46,8.18,2.69,17.99,4.08,25.8,7.23,4.55,1.84,9.72,5,1.34,5.73l-31.61-8.52c-9.63,16.37-24.32,25.6-41.58,32.55.83,4.8.43,21.4,3.99,24.1s17.11-.91,22.05-1.13c17.19-.77,52.47-2.41,57.85,19.22,2.49,10-2.75,17.76-13.31,16.82.23-3.89.29-6.55-1.48-10.06-.74-1.47.02-2.43-2.51-1.94,7.23,21.69-12.64,9.98-23.63,9.12-8.68-.68-25.39,4.73-34.15,7.61-2.38.78-8.79,2.32-9.75,4.25-.72,10.49-.53,21.02-1.49,31.51-1.41,15.3-5.99,30.13-6.83,45.35,13.98,3.32,17.56,19.15,5.34,27.16-11.81,7.75-11.25-5.6-15.49-10.52-3.24-3.74-10.98-5.48-12.42-9.53-3.97-22.26-5.15-44.99-8.75-67.29-.87-5.36-1.12-12.5-4.34-16.66-1.94,3.57-.89,10.11-.49,14.49,2.13,23.24,6.78,46.37,9.44,69.56,2.28,7.37,14.97,8.25,16.49,18.52,1.06,7.16-3.93,14.29-11.45,13.51-6.37-.65-1.91-8.37-4.5-13.07l-1.19,10.29c-5.61,6.28-17.78,2.12-22.23-4.36-7.27-10.59-11.66-45.23-16.07-59.93-5-16.66-15.76-47.38-38.13-43.14-1.61.31-3.83-.76-3.36,1.63,2.31,2.41,5.69,1.24,8.81,2.19,2.72.83,7.4,2.71,9.69,4.31,14.12,9.92,24.21,56.5,28.2,73.8.7,3.05,4.06,15.06,2.33,16.71-1.84,1.75-10.32,1.14-11,.46-.54-.53-.78-10.38-4.01-14.49-4.96-6.3-16.4-7.62-23.71-5.61-1.71.47-2.79-.72-2.31,2.13,8.1-.5,20.04,1.53,23.88,9.62,7.96,16.73-11.99,16.91-23.38,16.38-17.91-.83-40.88-3.82-58.99-6.01-33.77-4.07-56.52-26.78-50.26-62.23,2.43-13.79,18.38-40.91,35.49-34,13.18,5.33-1.02,22.5-4.3,29.19-10.82,22.08,5.11,38.88,27.56,38.06-.52-18.13-.19-35.1,3.66-52.84,8.35-38.46,30.9-69.78,52.19-101.84.13-1.45-10.59-12.17-12.4-12.36-4.7-.48-27.84,15.59-30.46,13.03-.55-3.95,5.02-6.56,8.07-8.42,5.93-3.6,12.51-5.38,18.66-8.37.8-.39,1.83.13,1.18-1.61-.15-.4-4.12-6.34-4.42-6.59-4.26-3.57-26.09,1.86-33.04,1.04-3.89-.46-5.04-2.41-1.04-4.14,7.34-3.17,22.29-1.89,30.59-2.91-1.74-6.88-4.48-14.39-4.98-21.51-.39-5.53,1.07-10.27,1.02-14.94-.27-27.58-9.64-55.59-7.02-85.03,1.79-20.16,12.02-14.07,23.87-5.91,17.26,11.89,27.84,26.84,42.47,40.03,6.93,6.26,10.34,1.77,18.11,1.32,9.27-.53,18.88-.1,28.04,1.15l1.3-.32c11.96-17.76,26.36-40.89,43.18-54.3,8.57-6.84,12.65-5.59,15.96,5.06,7.8,25.1,3.27,53.34,7.11,77.89.51,3.25,4.01,8.68,5.22,12.78,2.98,10.11,3.91,20.6.72,30.77ZM206.1,107.06c-1.44,1.89-2.72,6.07-3.06,8.45-5.43,38.05,51.74,40.04,48.78,1.7-1.29-16.62-21.92-28.25-36.37-19.29-1.43.88-8.28,7.75-9.35,9.15ZM161.15,104.37c-2.33-1.74-1.96-2.96-6.16-4.33-19.85-6.5-36.34,10.98-32.97,30.97,1.2,7.13,13.41,18.2,20.49,19.51,18.6,3.43,32.75-11.86,30.18-30.18-1.12-7.96-5.65-11.56-11.54-15.97ZM186.14,154.4c9.48,9.46,20.94-8.6,8.08-10.59-7.74-1.2-14.62,4.06-8.08,10.59Z"/><path class="e" d="M324.86,300.67c.29.4,7.47,2.16,9.28,3.23,22.81,13.48,4.73,47.17-17.96,49.75-3.82.43-9.7-.66-12.72.07-1.38.33-2.77,11.26-13.12,11.07s-40.69-13.11-50.57-18.51c-9.02-4.93-7.8-5.89-5-15.03,4.25-13.85,11.78-32.94,17.84-46.16,9.35-20.4,12.77-18.59,33.38-12.04,7.57,2.4,34.87,13.43,38.69,19.34,2.17,3.36-.77,6.95.18,8.29ZM245.76,332.75l23.58-53.95c.23-4.96-2.32-2.85-4.59-.57-3.61,3.63-19.57,43.96-20.73,50.27-.25,1.35-.73,6.35,1.74,4.25ZM310.78,340.75c11.76,3.2,23.72-12.83,20.56-23.04-1.27-4.1-7.06-5.63-10.07-2.97-.9.8-9.39,19.84-10.01,21.98-.39,1.35-.65,2.62-.47,4.02Z"/><path class="d" d="M161.15,104.37c5.89,4.41,10.42,8.01,11.54,15.97,2.57,18.32-11.58,33.61-30.18,30.18-7.08-1.31-19.29-12.38-20.49-19.51-3.37-19.99,13.12-37.47,32.97-30.97,4.2,1.37,3.82,2.59,6.16,4.33ZM155.78,112.75c-3.22-3.31-7.04-2.44-10.5,0-11.51,8.11-3.65,35.38,8.23,30.25,8.37-3.61,8.39-18.27,5.27-25.25-.48-1.08-2.28-4.26-3-5Z"/><path class="d" d="M206.1,107.06c1.06-1.4,7.92-8.26,9.35-9.15,14.45-8.96,35.09,2.67,36.37,19.29,2.97,38.34-54.21,36.36-48.78-1.7.34-2.38,1.62-6.56,3.06-8.45ZM233.78,110.75c-.61-1.4.7-2.9-2.23-4.27-4.41-2.07-9.99-1.2-12.6,2.9-11.2,17.59,7.84,40.72,15.31,20.35,2.42-6.6,2.32-12.57-.47-18.97Z"/><path class="d" d="M186.14,154.4c-6.54-6.53.35-11.79,8.08-10.59,12.86,1.99,1.39,20.05-8.08,10.59Z"/><path class="f" d="M310.78,340.75c-.17-1.4.08-2.68.47-4.02.63-2.14,9.11-21.18,10.01-21.98,3-2.67,8.79-1.13,10.07,2.97,3.17,10.2-8.79,26.24-20.56,23.04Z"/><path class="f" d="M245.76,332.75c-2.47,2.1-1.99-2.9-1.74-4.25,1.16-6.31,17.12-46.64,20.73-50.27,2.27-2.28,4.82-4.39,4.59.57l-23.58,53.95Z"/><path class="e" d="M155.78,112.75c-12.07,1.65-.04,18.35,3,5,3.12,6.98,3.1,21.64-5.27,25.25-11.88,5.13-19.74-22.14-8.23-30.25,3.46-2.44,7.28-3.31,10.5,0Z"/><path class="f" d="M155.78,112.75c.72.74,2.52,3.92,3,5-3.04,13.35-15.07-3.35-3-5Z"/><path class="e" d="M233.78,110.75c-.63-2.28-4.05-4.12-6.59-2.09-7.94,6.32,10.31,15.68,6.59,2.09,2.8,6.4,2.89,12.37.47,18.97-7.46,20.37-26.51-2.76-15.31-20.35,2.61-4.1,8.19-4.97,12.6-2.9,2.93,1.38,1.62,2.87,2.23,4.27Z"/><path class="f" d="M233.78,110.75c3.72,13.59-14.53,4.23-6.59-2.09,2.54-2.03,5.97-.19,6.59,2.09Z"/></g></svg>