<?xml version="1.0" encoding="UTF-8"?><svg id="b" xmlns="http://www.w3.org/2000/svg" viewBox="0 0 281.16 349.99"><defs><style>.d{fill:#85c441;}.e{fill:#010201;}.f{fill:#fefefe;}</style></defs><g id="c"><path class="e" d="M241.16,87.88c.78.84,11.89-7.82,13.68-8.79,2.45-1.34,9.05-5.75,7.89-.1-.23,1.12-9.74,8.77-11.66,10.31-4.17,3.37-9.49,3.82-8.91,10.56,1.21,1.15,18.79-3.23,22.48-3.08,1.53.06,4.99.12,4.49,2.58-.82,4.05-23.57,5.78-27.73,7.74-5.11,20.04-17.92,37.43-36.2,47.22,1.62,1.76,3.61,3.7,6.24,3.32,12.86-4.14,26.46-10.31,39.5-13.51,9.19-2.26,27.63-5.83,29.95,7.45,2.48,14.2-12.58,13.85-21.43,17.05-15.86,5.75-30.24,16.14-47.92,22.06-1.55.52-2.86-.88-2.34,2.1,10.2.37,21.2,1.42,31.3,3.17,9.22,1.6,28.11,4.47,30.4,15.55,3.13,15.06-8.46,20.33-21.27,15.28-15.74-6.2-28.28-4.34-44.93-6.02-11.01-1.11-21.98-3.57-32.96-4.99-11.19,9.49-21.63,20.64-35.27,27.18-.22,18.85-5.41,40.51-23.2,50.26,0,1.38,11.6,14.26,13.49,15.48,3.81,2.45,9.06,2.03,13.55,4.44,7.59,4.07,12.42,17.61,2.78,20.87-20.36,6.89-36.24-9.35-47.75-23.85-2.52-3.17-11.7-15.44-12.6-18.41-1.31-4.29,4.24-8.14,6.74-12.35,5.2-8.78,9.1-25.09,7.83-35.15-.23-1.81.34-1.62-2-1.48-1.88,24.05-13.4,46.79-37.05,55.56-.3,1.92,5.42,20.62,6.87,23.07,4.59,7.76,14.68,7.26,14.82,18.94.16,13.95-23.88,10.62-31.54,3.77-7.22-6.46-17.58-40.9-18.04-50.92-.43-9.45,3.59-11.92,5.55-19.4,3.5-13.38.3-30.47,1.49-44.36C6.36,218.48-6.77,190.82,3.38,159.3c5.91-18.36,24.36-35.65,21.73-55.67-1.17-8.93-11.07-21.6,1.37-27.12,13.79-6.13,23.87,5.64,26.61,18.13,8.07,36.77-29.09,58.4-24.63,90.57.73,5.3,9.87,19.16,15.75,15.42.6-.38,5.68-10.02,7.31-12.16,14.48-19.05,37.81-35.76,61.77-39.64-4.9-9.71-7.48-17.63-8.98-28.48-.47-3.41.62-7.06-.46-10.53-.62-1.99-4.02-5.22-5.35-7.63-5.91-10.7-11.05-23.99-14.1-35.85-1.64-6.39-6.78-24.4.93-27.87,8.55-3.86,34.43,9.62,42.97,13.95,3.35,1.7,12,7.79,14.7,8.35,5.2,1.08,19.08-6.12,25.66-5.71,1.15-14.39.21-29.15,3.87-43.27,1.31-5.06,2.74-12.95,8.97-11.6,8.16,1.76,21.68,24.55,25.87,32.11,2.71,4.9,6.67,16.33,9.36,19.62,2.19,2.67,7.98,5.03,11,7.98,6.98,6.84,12.72,18.21,13.45,28.01ZM210.96,70.1c-16.39,2.26-16.47,27.82-4.26,36.76,13.04,9.55,24.84-3.63,23.22-17.21-1.05-8.79-8.81-20.95-18.96-19.55ZM152.55,94.19c-.68.52-6.76,6.68-7.15,7.32-5.69,9.4-3.03,23.33,5.52,30.15,22.54,18.01,44.86-9.51,31.13-30.13-5.86-8.8-20.4-14.28-29.5-7.34Z"/><path class="d" d="M152.55,94.19c9.1-6.94,23.64-1.45,29.5,7.34,13.73,20.62-8.59,48.14-31.13,30.13-8.54-6.83-11.21-20.75-5.52-30.15.39-.65,6.48-6.81,7.15-7.32ZM173.92,102.18c-.78-.71-3.41-1.91-4.43-2.09-16.54-2.94-13.36,26.13-2.53,28.55,12.22,2.73,14.55-19.6,6.96-26.46Z"/><path class="d" d="M210.96,70.1c10.15-1.4,17.91,10.76,18.96,19.55,1.62,13.58-10.18,26.76-23.22,17.21-12.21-8.94-12.13-34.5,4.26-36.76ZM210.88,79.09c-8.03,2.43-4,26.11,5.58,24.62,11.51-1.79,9.7-29.24-5.58-24.62Z"/><path class="e" d="M173.92,102.18c7.58,6.87,5.26,29.19-6.96,26.46-10.83-2.42-14.01-31.49,2.53-28.55,1.02.18,3.65,1.38,4.43,2.09ZM164.94,101.99c-4.94,1.27-4.12,7.82-.09,9.82,5.96-.81,5.52-11.21.09-9.82Z"/><path class="e" d="M210.88,79.09c15.28-4.62,17.09,22.83,5.58,24.62-9.58,1.49-13.61-22.19-5.58-24.62ZM210.29,81c-2.39,1.47-.95,9.94,3.97,6.46,2.99-2.12-.02-8.9-3.97-6.46Z"/><path class="f" d="M164.94,101.99c5.43-1.4,5.88,9.01-.09,9.82-4.03-2-4.86-8.55.09-9.82Z"/><path class="f" d="M210.29,81c3.95-2.44,6.96,4.33,3.97,6.46-4.91,3.49-6.35-4.98-3.97-6.46Z"/></g></svg>