<svg xmlns="http://www.w3.org/2000/svg" viewBox="0 0 24 24" fill="currentColor" class="waki-icon" aria-hidden="true" focusable="false">
  <path d="M22.225 0H1.771C.792 0 0 .771 0 1.723v20.555C0 23.23.792 24 1.771 24h20.454C23.2 24 24 23.23 24 22.278V1.723C24 .771 23.2 0 22.225 0zM7.119 20.452H3.554V9H7.12v11.452zM5.337 7.433a2.065 2.065 0 1 1 .001-4.13 2.065 2.065 0 0 1-.001 4.13zM20.447 20.452h-3.554v-5.569c0-1.328-.024-3.039-1.855-3.039-1.855 0-2.138 1.445-2.138 2.939v5.669H9.346V9h3.414v1.561h.049c.476-.9 1.637-1.852 3.368-1.852 3.599 0 4.266 2.368 4.266 5.455v6.288z"/>
</svg>
